# xmcd CD database file
# Copyright (C) 1996 Ti Kan
#
# Track frame offsets:
# 	150
# 	15660
# 	32292
# 	46120
# 	61372
# 	77607
# 	91747
# 	105167
# 	121282
# 	135255
# 	150465
# 	163385
# 	181547
# 	196202
# 	210905
# 	223745
# 	240320
# 	257132
# 	268902
# 	281515
#
# Disc length: 3942 seconds
#
# Revision: 1
# Processed by: cddbd v1.4b41PL1 Copyright (c) Steve Scherf et al.
# Submitted via: DiscPlay 3.4.1
#
DISCID=f60f6414
DTITLE=Lee  Greenwood - Inside Out and You've Got A Good Love Comin'
DYEAR=1900
DGENRE=
TTITLE0=A Love Song
TTITLE1=Ring On Her Finger, Time On Her Hands
TTITLE2=I Don't Want To Be A Memory
TTITLE3=Ain't No Trick (It Takes Magic)
TTITLE4=It Turns Me Inside Out
TTITLE5=She's Lying
TTITLE6=Home Away From Home
TTITLE7=Love Don't Get No Better Than This
TTITLE8=Thank You For Changing My Life
TTITLE9=Broken Pieces Of My Heart
TTITLE10=You've Got A Good Love Comin'
TTITLE11=Love In Time
TTITLE12=I Don't Want To Wake You
TTITLE13=Love Me Like I'm Leavin Tonight
TTITLE14=Worth It For The Ride
TTITLE15=Two Heart Serenade
TTITLE16=Fool's Gold
TTITLE17=Lean, Mean, Lovin' Machine
TTITLE18=Even Love Can't Save Us Now
TTITLE19=God Bless The USA
EXTD=
EXTT0=L Greenwood
EXTT1=D Goodman - P Rose - M Kennedy
EXTT2=L Greenwood - A Wilburn
EXTT3=S Pippin - J Hurt
EXTT4=J Crutchfield
EXTT5=J Crutchfield
EXTT6=L Greenwood
EXTT7=J Crutchfield
EXTT8=L Greenwood
EXTT9=J Crutchfield
EXTT10=D Morrison - J Silbar - V Stephenson
EXTT11=G Ballard - Clif Magness
EXTT12=W Holyfield - P McCann
EXTT13=P Bunch - M Kennedy - P Rose
EXTT14=J Crutchfield - L Greenwood
EXTT15=M Clark
EXTT16=T Tappan - D Roth
EXTT17=D Cook - R VanHoy
EXTT18=F Burch - J Crutchfield - P Harrison
EXTT19=L Greenwood
PLAYORDER=
